<?xml version="1.0" encoding="iso-8859-1"?>
<!-- Generator: Adobe Illustrator 19.0.0, SVG Export Plug-In . SVG Version: 6.00 Build 0)  -->
<svg version="1.1" id="Capa_1" xmlns="http://www.w3.org/2000/svg" xmlns:xlink="http://www.w3.org/1999/xlink" x="0px" y="0px"
	 viewBox="0 0 512 512" style="enable-background:new 0 0 512 512;" xml:space="preserve">
<g>
	<g>
		<path d="M437.02,74.98C388.667,26.629,324.38,0,256,0S123.333,26.629,74.98,74.98C26.629,123.333,0,187.62,0,256
			s26.629,132.667,74.98,181.02C123.333,485.371,187.62,512,256,512s132.667-26.629,181.02-74.98
			C485.371,388.667,512,324.38,512,256S485.371,123.333,437.02,74.98z M256,482c-60.367,0-117.12-23.508-159.806-66.194
			C53.508,373.12,30,316.367,30,256c0-55.339,19.768-107.633,55.943-148.845l53.287,53.287l-29.85,60.283H68.11v106.537h30.16
			c6.377,20.118,25.222,34.74,47.423,34.74c22.201,0,41.046-14.622,47.423-34.74H306.05l98.795,98.795
			C363.633,462.232,311.339,482,256,482z M145.693,292.523c10.884,0,19.739,8.855,19.739,19.739c0,10.885-8.855,19.74-19.739,19.74
			c-10.884,0-19.739-8.855-19.739-19.74C125.954,301.379,134.81,292.523,145.693,292.523z M142.855,220.726l20.167-40.729h52.2
			v40.729H142.855z M245.223,220.726v-40.729h52.2l20.167,40.729H245.223z M344.101,312.263c0-10.884,8.855-19.739,19.739-19.739
			c10.884,0,19.739,8.855,19.739,19.739c0,10.885-8.855,19.74-19.739,19.74C352.956,332.003,344.101,323.147,344.101,312.263z
			 M426.057,404.844l-45.678-45.678c14.65-5.183,26.172-17.039,30.884-31.903h32.627v-95.827l-92.353-9.76l-35.493-71.679H171.21
			l-64.055-64.055C148.368,49.768,200.661,30,256,30c60.367,0,117.12,23.508,159.806,66.194C458.492,138.88,482,195.633,482,256
			C482,311.339,462.232,363.633,426.057,404.844z"/>
	</g>
</g>
<g>
</g>
<g>
</g>
<g>
</g>
<g>
</g>
<g>
</g>
<g>
</g>
<g>
</g>
<g>
</g>
<g>
</g>
<g>
</g>
<g>
</g>
<g>
</g>
<g>
</g>
<g>
</g>
<g>
</g>
</svg>
